<?xml version="1.0" encoding="utf-8"?>
<!-- Generator: Adobe Illustrator 25.2.1, SVG Export Plug-In . SVG Version: 6.00 Build 0)  -->
<svg version="1.1" id="Layer_1" xmlns="http://www.w3.org/2000/svg" xmlns:xlink="http://www.w3.org/1999/xlink" x="0px" y="0px"
	 viewBox="0 0 530 530" style="enable-background:new 0 0 530 530;" xml:space="preserve">
<style type="text/css">
	.st0{fill:#FFFFFF;}
</style>
<g id="Arm_Tag">
	<rect x="231.6" y="78.3" width="279.2" height="118"/>
	<g>
		<path class="st0" d="M315.4,156.9h-21.2l-4,12.1h-12.8l21.8-58.6h11.2l21.9,58.6h-12.8L315.4,156.9z M297.5,147.1h14.7l-7.4-21.9
			L297.5,147.1z"/>
		<path class="st0" d="M359.5,147.5h-9.6V169h-12.1v-58.6h21.8c6.9,0,12.3,1.5,16,4.6c3.8,3.1,5.6,7.4,5.6,13.1c0,4-0.9,7.3-2.6,10
			c-1.7,2.7-4.4,4.8-7.9,6.4l12.7,23.9v0.6h-13L359.5,147.5z M349.9,137.7h9.7c3,0,5.4-0.8,7-2.3c1.7-1.5,2.5-3.7,2.5-6.4
			c0-2.8-0.8-4.9-2.4-6.5c-1.6-1.6-4-2.4-7.2-2.4h-9.7V137.7z"/>
		<path class="st0" d="M406.2,110.4l15.1,42.5l15-42.5h15.9V169h-12.1v-16l1.2-27.7L425.3,169H417l-15.8-43.6l1.2,27.6v16h-12.1
			v-58.6H406.2z"/>
	</g>
</g>
<g>
	<path d="M223,147.2v-30.5c-2.5,9.6-3.5,19.7-2.7,30.3C221.2,147.1,222.1,147.2,223,147.2z"/>
	<path d="M307.7,83.7c8.1-19.9,6.7-36.1,6.2-43.4c-24.1,1.4-52,16.4-67.9,34.9c-2.4,2.7-4.7,5.6-6.9,8.5H307.7z"/>
	<path d="M346.4,277c-0.2-31.3,11.9-56,36.2-75.3H223v-33.4c-15.1-0.2-49.3-19.7-76.2-19.7C91,149.5,31.7,193.1,31.7,281.8
		c0,26.2,4.8,53.3,14.4,81.2c12.8,36.7,59,126.7,107.2,125.2c25.2-0.6,43-17.9,75.8-17.9c31.8,0,48.3,17.9,76.4,17.9
		c48.6-0.7,90.4-82.5,102.6-119.3C342.9,338.2,346.4,278.9,346.4,277z"/>
</g>
</svg>
