<?xml version="1.0" encoding="utf-8"?>
<!-- Generator: Adobe Illustrator 25.2.1, SVG Export Plug-In . SVG Version: 6.00 Build 0)  -->
<svg version="1.1" id="Layer_1" xmlns="http://www.w3.org/2000/svg" xmlns:xlink="http://www.w3.org/1999/xlink" x="0px" y="0px"
	 viewBox="0 0 590 590" style="enable-background:new 0 0 590 590;" xml:space="preserve">
<style type="text/css">
	.st0{fill:#FFFFFF;}
</style>
<g id="Arm_Tag_1_">
	<rect x="267.1" y="59.6" width="279.2" height="118"/>
	<g>
		<path class="st0" d="M350.9,138.2h-21.2l-4,12.1h-12.8l21.8-58.6h11.2l21.9,58.6H355L350.9,138.2z M333,128.4h14.7l-7.4-21.9
			L333,128.4z"/>
		<path class="st0" d="M395,128.8h-9.6v21.5h-12.1V91.7h21.8c6.9,0,12.3,1.5,16,4.6c3.8,3.1,5.6,7.4,5.6,13.1c0,4-0.9,7.3-2.6,10
			c-1.7,2.7-4.4,4.8-7.9,6.4l12.7,23.9v0.6h-13L395,128.8z M385.4,119h9.7c3,0,5.4-0.8,7-2.3c1.7-1.5,2.5-3.7,2.5-6.4
			c0-2.8-0.8-4.9-2.4-6.5c-1.6-1.6-4-2.4-7.2-2.4h-9.7L385.4,119L385.4,119z"/>
		<path class="st0" d="M441.7,91.7l15.1,42.5l15-42.5h15.9v58.6h-12.1v-16l1.2-27.7L461,150.3h-8.3l-15.9-43.7l1.2,27.6v16h-12.1
			V91.7H441.7z"/>
	</g>
</g>
<g>
	<path d="M252.3,194.8c6.6,5.2,15.8,10.6,27.3,10.6c11.6,0,22.5-5.9,31.8-10.8c3.8-2,8.3-5.1,11.9-8h-5.3c-3,2.2-6,4.4-8.7,5.9
		c-7.4,4.2-19.5,10.2-29.9,10.2c-10.4,0-18.7-4.8-24.9-9.7c-3.1-2.5-5.7-5-7.7-6.9c-1.5-1.4-1.9-4.6-4.3-4.9
		c-1.4-0.1-1.8,3.7,1.7,6.5h0C246.3,189.6,249,192.2,252.3,194.8z"/>
	<path d="M341.6,46.6c-9.5-4.8-21.3-7.6-35.8-7.6c-16.9,0-30.2,2.8-40.9,7.6H341.6z"/>
	<path d="M491,442.8c-3.6-4-5.3-11.6-7.2-19.7c-1.8-8.1-3.9-16.8-10.5-22.4c-1.3-1.1-2.6-2.1-4-2.9c-1.3-0.8-2.7-1.5-4.1-2
		c9.2-27.3,5.6-54.5-3.7-79.1c-11.4-30.1-31.3-56.4-46.5-74.4c-13.8-17.4-27.3-34.1-31.8-55.7h-41.6c-0.1,0.2-0.1,0.4-0.2,0.6
		c-2.6,7.1-11,14.4-22.7,18.1c-11.1,3.6-19.8,16-38.2,14.9c-3.9-0.2-7-1-9.6-2.1c-8-3.5-12.2-10.4-20-15
		c-8.6-4.8-13.2-10.4-14.7-15.3c-1.4-4.9,0-9,4.2-12.3c6.2-4.6,13.6-10,14.1-10.5c1-0.9,2.2-2.1,3.6-3.4v-26.3c-1.4-1.4-3-2.2-4.8-2
		c-8.4,0.7-9.8,21.2-1.8,28.1c1,0.8,1.9-0.2-5.9,5.5c-15.6-14.6-10.5-52.1,8.4-52.1c1.4,0,2.7,0.3,4.1,0.8V50.2
		c-45.4,27.6-29.3,98.7-30.2,124c-1.7,23.4-6.4,41.8-22.5,64.7c-18.9,22.5-45.5,58.8-58.1,96.7c-6,17.9-8.8,36.1-6.2,53.3
		c-6.5,5.8-11.4,14.7-16.6,20.2c-4.2,4.3-10.3,5.9-17,8.3c-6.7,2.4-14,6-18.5,14.5c-2.1,3.9-2.8,8.1-2.8,12.4
		c0,3.9,0.6,7.9,1.2,11.8c1.2,8.1,2.5,15.7,0.8,20.8c-5.2,14.4-5.9,24.4-2.2,31.7c3.8,7.3,11.4,10.5,20.1,12.3
		c17.3,3.6,40.8,2.7,59.3,12.5c19.8,10.4,39.9,14.1,55.9,10.4c11.6-2.6,21.1-9.6,25.9-20.2c12.5-0.1,26.3-5.4,48.3-6.6
		c14.9-1.2,33.6,5.3,55.1,4.1c0.6,2.3,1.4,4.6,2.5,6.7v0.1c8.3,16.7,23.8,24.3,40.3,23c16.6-1.3,34.1-11,48.3-27.9
		c13.6-16.4,36-23.2,50.9-32.2c7.4-4.5,13.4-10.1,13.9-18.3C506.9,464.3,502.1,455.2,491,442.8L491,442.8z M243.7,509.5
		c-2.7,35.1-43.9,34.4-75.3,18c-29.9-15.8-68.6-6.5-76.5-21.9c-2.4-4.7-2.4-12.7,2.6-26.4V479c2.4-7.6,0.6-16-0.6-23.9
		c-1.2-7.8-1.8-15,0.9-20c3.5-6.7,8.5-9.1,14.8-11.3c10.3-3.7,11.8-3.4,19.6-9.9c5.5-5.7,9.5-12.9,14.3-18c5.1-5.5,10-8.1,17.7-6.9
		c8.1,1.2,15.1,6.8,21.9,16l19.6,35.6C212.2,460.5,245.8,489,243.7,509.5z M242.3,483.6L242.3,483.6c-4.1-6.6-9.6-13.6-14.4-19.6
		c7.1,0,14.2-2.2,16.7-8.9c2.3-6.2,0-14.9-7.4-24.9c-13.5-18.2-38.3-32.5-38.3-32.5c-13.5-8.4-21.1-18.7-24.6-29.9
		c-3.5-11.2-3-23.3-0.3-35.2c5.2-22.9,18.6-45.2,27.2-59.2c2.3-1.7,0.8,3.2-8.7,20.8c-8.5,16.1-24.4,53.3-2.6,82.4
		c0.6-20.7,5.5-41.8,13.8-61.5c12-27.4,37.3-74.9,39.3-112.7c1.1,0.8,4.6,3.2,6.2,4.1c4.6,2.7,8.1,6.7,12.6,10.3
		c12.4,10,28.5,9.2,42.4,1.2c6.2-3.5,11.2-7.5,15.9-9c9.9-3.1,17.8-8.6,22.3-15c7.7,30.4,25.7,74.3,37.2,95.7
		c6.1,11.4,18.3,35.5,23.6,64.6c3.3-0.1,7,0.4,10.9,1.4c13.8-35.7-11.7-74.2-23.3-84.9c-4.7-4.6-4.9-6.6-2.6-6.5
		c12.6,11.2,29.2,33.7,35.2,59c2.8,11.6,3.3,23.7,0.4,35.7c16.4,6.8,35.9,17.9,30.7,34.8c-2.2-0.1-3.2,0-4.2,0
		c3.2-10.1-3.9-17.6-22.8-26.1c-19.6-8.6-36-8.6-38.3,12.5c-12.1,4.2-18.3,14.7-21.4,27.3c-2.8,11.2-3.6,24.7-4.4,39.9
		c-0.5,7.7-3.6,18-6.8,29C324.5,499.3,279.9,509.3,242.3,483.6z M499.7,472.1L499.7,472.1c-0.9,16.8-41.2,19.9-63.2,46.5
		c-13.2,15.7-29.4,24.4-43.6,25.5c-14.2,1.1-26.5-4.8-33.7-19.3c-4.7-11.1-2.4-23.1,1.1-36.3c3.7-14.2,9.2-28.8,9.9-40.6
		c0.8-15.2,1.7-28.5,4.2-38.7c2.6-10.3,6.6-17.2,13.7-21.1c0.3-0.2,0.7-0.3,1-0.5c0.8,13.2,7.3,26.6,18.8,29.5
		c12.6,3.3,30.7-7.5,38.4-16.3c9-0.3,15.7-0.9,22.6,5.1c9.9,8.5,7.1,30.3,17.1,41.6C496.6,459.1,500,467,499.7,472.1z"/>
</g>
</svg>
