<?xml version="1.0" encoding="utf-8"?>
<!-- Generator: Adobe Illustrator 25.2.1, SVG Export Plug-In . SVG Version: 6.00 Build 0)  -->
<svg version="1.1" id="Layer_1" xmlns="http://www.w3.org/2000/svg" xmlns:xlink="http://www.w3.org/1999/xlink" x="0px" y="0px"
	 viewBox="0 0 590 590" style="enable-background:new 0 0 590 590;" xml:space="preserve">
<style type="text/css">
	.st0{fill:#FFFFFF;}
</style>
<g id="Windows_Symbol">
	<polygon points="71,132.9 255,107.6 255,285 71,285 	"/>
	<polygon points="71,456.9 255,482.2 255,307 71,307 	"/>
	<polygon points="275,484.9 519,518.6 519,307 275,307 	"/>
	<g>
		<polygon points="301,101.3 301,173 519,173 519,71.2 		"/>
		<polygon points="294.8,102.2 295.2,102.1 275,104.9 275,285 519,285 519,179 295,179 		"/>
	</g>
</g>
<g id="Arm_Tag">
	<rect x="300.8" y="55" width="279.2" height="118"/>
	<g>
		<path class="st0" d="M384.6,133.6h-21.2l-4,12.1h-12.8l21.8-58.6h11.2l21.9,58.6h-12.8L384.6,133.6z M366.7,123.8h14.7l-7.4-21.9
			L366.7,123.8z"/>
		<path class="st0" d="M428.7,124.2h-9.6v21.5H407V87.1h21.8c6.9,0,12.3,1.5,16,4.6c3.8,3.1,5.6,7.4,5.6,13.1c0,4-0.9,7.3-2.6,10
			c-1.7,2.7-4.4,4.8-7.9,6.4l12.7,23.9v0.6h-13L428.7,124.2z M419.1,114.4h9.7c3,0,5.4-0.8,7-2.3c1.7-1.5,2.5-3.7,2.5-6.4
			c0-2.8-0.8-4.9-2.4-6.5c-1.6-1.6-4-2.4-7.2-2.4h-9.7V114.4z"/>
		<path class="st0" d="M475.4,87.1l15.1,42.5l15-42.5h15.9v58.6h-12.1v-16l1.2-27.7l-15.8,43.7h-8.3L470.5,102l1.2,27.6v16h-12.1
			V87.1H475.4z"/>
	</g>
</g>
</svg>
