<?xml version="1.0" encoding="utf-8"?>
<!-- Generator: Adobe Illustrator 25.2.1, SVG Export Plug-In . SVG Version: 6.00 Build 0)  -->
<svg version="1.1" id="Layer_1" xmlns="http://www.w3.org/2000/svg" xmlns:xlink="http://www.w3.org/1999/xlink" x="0px" y="0px"
	 viewBox="0 0 1024 1024" style="enable-background:new 0 0 1024 1024;" xml:space="preserve">
<g>
	<path d="M71.1,291.6c72.4,0,144.7,0,218.5,0c0,147.3,0,292,0,440.9c-72.6,0-145.5,0-218.5,0C71.1,585.5,71.1,438.5,71.1,291.6z"/>
	<path d="M714.1,71.1c23.7,12.8,36.1,32.8,41.8,59.1c6.1,28.2,15.2,55.8,23.8,86.6C709.4,235.6,640.5,254,569,273.2
		c-4.2-12.3-8.2-24.1-12.8-37.3c-68.8,0-137.4,0-205.3,0c0-42.6-3.2-83.8,1.7-124.1c1.8-14.8,23-27.2,35.3-40.7
		c45.9,0,91.9,0,137.8,0c13.7,11.2,27.4,22.4,43.2,35.4c35.7-11.2,74.3-23.3,113-35.4C692.6,71.1,703.4,71.1,714.1,71.1z"/>
	<path d="M778.4,952.9c-25.7-10.3-38.7-30.3-44.6-56.6c-6.5-29-14.4-57.7-22.4-89.2c69.7-18.8,138.6-37.3,208.8-56.3
		c11.2,36.3,21.9,70.9,32.7,105.6c0,9.2,0,18.4,0,27.6c-12.3,23.7-31.7,36.3-58.1,42.1c-30.1,6.7-59.3,17.7-88.9,26.8
		C796.7,952.9,787.6,952.9,778.4,952.9z"/>
	<path d="M250.2,71.1c30.8,12.7,42.9,35.7,41.1,68.7c-1.6,29.6-0.3,59.4-0.3,92c-74.2,0-147,0-219.8,0c0-39.8,0-79.6,0-119.4
		c12.2-13.8,24.5-27.6,36.7-41.3C155.3,71.1,202.8,71.1,250.2,71.1z"/>
	<path d="M71.1,787.6c72.4,0,144.8,0,220.2,0c-1.8,42.1-2.3,81.6-5.8,120.8c-2,22.3-23.3,39.1-46.7,39.6c-39,0.8-77.9,0.3-116.9,0.3
		c-25.8,0-38.9-17.6-50.9-36.7C71.1,870.2,71.1,828.9,71.1,787.6z"/>
	<path d="M793.9,271.8c38.1,142.5,75.3,281.6,113.3,423.8c-69.8,18.8-138.6,37.3-210.3,56.7c-38.3-141.2-76.3-280.7-115.1-423.8
		C652,309.7,721.5,291.1,793.9,271.8z"/>
	<path d="M349.2,293.5c71.8,0,141.9,0,213.3,0c0,146.1,0,290.9,0,437c-71.3,0-141.4,0-213.3,0C349.2,585.6,349.2,440.2,349.2,293.5z
		"/>
	<path d="M347.7,785.2c72.1,0,141.4,0,213,0c0,42.9,2.2,85.4-0.9,127.4c-1.6,21.2-20,34.5-42.3,35.1c-41.2,1-82.5,1.2-123.8-0.1
		c-24.1-0.8-44.6-20-45.6-43.7C346.5,865.2,347.7,826.3,347.7,785.2z"/>
</g>
</svg>
