<?xml version="1.0" encoding="utf-8"?>
<!-- Generator: Adobe Illustrator 25.2.1, SVG Export Plug-In . SVG Version: 6.00 Build 0)  -->
<svg version="1.1" id="Layer_1" xmlns="http://www.w3.org/2000/svg" xmlns:xlink="http://www.w3.org/1999/xlink" x="0px" y="0px"
	 viewBox="0 0 873.5 873.5" style="enable-background:new 0 0 873.5 873.5;" xml:space="preserve">
<style type="text/css">
	.st0{fill:#FFFFFF;}
</style>
<g>
	<path class="st0" d="M850.2,444.3c-0.1,110.2-32.6,195.6-92.6,271.1c-39.4,49.6-88.7,86.7-145.8,113.7c-8.4,4-9.7,3.4-13.1-5.4
		c-26.9-69.8-53.7-139.6-80.5-209.5c-3.3-8.6-2.9-9.7,4.9-14.5c41.1-25.2,67.9-60.6,78.7-108.1c20.7-91.2-37-181.7-128.6-201.8
		c-91.1-20-173.2,36.7-196.8,111.3c-21.3,67.4-4.1,145.9,67,193.6c2.9,1.9,5.8,3.8,8.7,5.8c5.4,3.7,6.1,5.7,3.6,12.2
		c-7.7,20.1-15.5,40.3-23.2,60.4c-19.3,50.3-38.6,100.7-57.9,151c-3,7.9-4.7,8.7-11.6,5.3c-84.4-41.5-150.7-102-194.8-185.8
		C46.6,603.1,32.6,559.7,26.9,514c-14.6-117.4,13.3-223.9,86.5-317.1C173.8,120,253,71.7,348.8,51.1c40.8-8.8,82.1-11.2,123.5-7.6
		C574.5,52.5,662.1,93.3,733.7,167c56.9,58.6,92.9,128.5,108.9,208.7C848,402.6,850.4,429.9,850.2,444.3z"/>
</g>
</svg>
